{"title":"The.Heavy 2010 720p.BRRip.x264.Feel-Free","uid":6056225,"size":1985927250,"categoryP":"video","categoryS":"hd___movies","magnet":"?xt=urn:btih:cba3f787a1950e456497c15cf0151e3900aed72b&amp;dn=The.Heavy+2010+720p.BRRip.x264.Feel-Free&amp;tr=udp%3A%2F%2Ftracker.openbittorrent.com%3A80&amp;tr=udp%3A%2F%2Fopen.demonii.com%3A1337&amp;tr=udp%3A%2F%2Ftracker.coppersurfer.tk%3A6969&amp;tr=udp%3A%2F%2Fexodus.desync.com%3A6969","seeders":0,"leechers":1,"uploader":"neon","files":10,"time":1292926816,"description":"\nGenre:Thriller\nLanguage:English\n &lt;a href=&quot; http://www.imdb.com/title/tt0473364&quot; rel=&quot;nofollow&quot; target=&quot;_NEW&quot;&gt; http://www.imdb.com/title/tt0473364&lt;/a&gt;\nSource:BluRay.x264.-THUGLiNE\nSubtitles:Romana\n\n\nFormat : Matroska\nFile size : 1.84 GiB\nDuration : 1h 41mn\nOverall bit rate : 2 593 Kbps\n\n\nVideo\nFormat settings, CABAC : Yes\nFormat settings, ReFrames : 4 frames\nCodec ID : V_MPEG4/ISO/AVC\nDuration : 1h 41mn\nBit rate : 2 158 Kbps\nNominal bit rate : 2 300 Kbps\nWidth : 1 280 pixels\nHeight : 688 pixels\nDisplay aspect ratio : 1.860\nFrame rate mode : Variable\nFrame rate : 23.976 fps\nColor space : YUV\nChroma subsampling : 4:2:0\nBit depth : 8 bits\nScan type : Progressive\nBits/(Pixel*Frame) : 0.102\nStream size : 1.53 GiB (83%)\nWriting library : x264\n\n\nAudio\nID : 2\nFormat : AC-3\nFormat/Info : Audio Coding 3\nMode extension : CM (complete main)\nCodec ID : A_AC3\nDuration : 1h 41mn\nBit rate mode : Constant\nBit rate : 384 Kbps\nChannel(s) : 6 channels\nChannel positions : Front: L C R, Side: L R, LFE\nSampling rate : 48.0 KHz\nBit depth : 16 bits\nVideo delay : -1mn 5s\nStream size : 280 MiB (15%)\nLanguage : English\n\n\n\nPlot:\nDuring a routine hit, &quot;Boots&quot; Mason (Gary Stretch) learns a hit has been placed on his own life when a crocked cop\n &lt;a href=&quot;\nhttp://rapidhdd.com/images/381474vlcsnap-2010-12-21-09h28m42s113.png&quot; rel=&quot;nofollow&quot; target=&quot;_NEW&quot;&gt;\nhttp://rapidhdd.com/images/381474vlcsnap-2010-12-21-09h28m42s113.png&lt;/a&gt; &lt;a href=&quot;\nhttp://www.rapidhdd.com/images/388547vlcsnap-2010-12-21-09h29m05s100.png&quot; rel=&quot;nofollow&quot; target=&quot;_NEW&quot;&gt;\nhttp://www.rapidhdd.com/images/388547vlcsnap-2010-12-21-09h29m05s100.png&lt;/a&gt; &lt;a href=&quot;\nhttp://www.rapidhdd.com/images/159947vlcsnap-2010-12-21-09h28m58s32.png&quot; rel=&quot;nofollow&quot; target=&quot;_NEW&quot;&gt;\nhttp://www.rapidhdd.com/images/159947vlcsnap-2010-12-21-09h28m58s32.png&lt;/a&gt; &lt;a href=&quot;\nhttp://www.rapidhdd.com/images/652418vlcsnap-2010-12-21-09h30m19s68.png&quot; rel=&quot;nofollow&quot; target=&quot;_NEW&quot;&gt;\nhttp://www.rapidhdd.com/images/652418vlcsnap-2010-12-21-09h30m19s68.png&lt;/a&gt; &lt;a href=&quot;\nhttp://www.rapidhdd.com/images/601428vlcsnap-2010-12-21-09h30m34s210.png&quot; rel=&quot;nofollow&quot; target=&quot;_NEW&quot;&gt;\nhttp://www.rapidhdd.com/images/601428vlcsnap-2010-12-21-09h30m34s210.png&lt;/a&gt;","torrent":{"xt":"urn:btih:cba3f787a1950e456497c15cf0151e3900aed72b","amp;dn":"The.Heavy+2010+720p.BRRip.x264.Feel-Free","amp;tr":["udp%3A%2F%2Ftracker.openbittorrent.com%3A80","udp%3A%2F%2Fopen.demonii.com%3A1337","udp%3A%2F%2Ftracker.coppersurfer.tk%3A6969","udp%3A%2F%2Fexodus.desync.com%3A6969"],"infoHash":"cba3f787a1950e456497c15cf0151e3900aed72b","infoHashBuffer":{"type":"Buffer","data":[203,163,247,135,161,149,14,69,100,151,193,92,240,21,30,57,0,174,215,43]},"announce":[],"urlList":[]}}